<svg width="977" height="255" viewBox="0 0 977 255" fill="none" xmlns="http://www.w3.org/2000/svg">
<path d="M51.7733 96.436H76.0043V62.3904H51.7733C23.1795 62.3904 0 85.5699 0 114.164V148.209C0 119.616 23.1795 96.436 51.7733 96.436Z" fill="url(#paint0_linear_2052_193)"/>
<path d="M51.7733 158.827C23.1795 158.827 0 182.006 0 210.6V255L76.0043 196.437V158.827H51.7733Z" fill="url(#paint1_linear_2052_193)"/>
<path d="M143.451 158.801L161.897 158.564C168.105 158.564 177.123 165.195 177.123 175.587C177.123 185.979 168.105 192.609 161.897 192.609H173.731C210.642 192.609 246.883 156.868 232.83 125.804L232.834 125.8C227.739 119.48 221.696 113.957 214.92 109.446C203.321 137.812 175.792 157.976 143.451 158.801Z" fill="url(#paint2_linear_2052_193)"/>
<path d="M0 210.6C0 182.006 23.1795 158.827 51.7733 158.827H141.388C185.247 158.827 220.802 123.27 220.802 79.4136C220.802 35.5537 185.247 0 141.388 0H51.7733C23.1795 0 0 23.1795 0 51.7733V114.164C0 85.5702 23.1795 62.3903 51.7733 62.3903H132.312C138.521 62.3903 147.538 69.0209 147.538 79.4133C147.538 89.8052 138.521 96.4359 132.312 96.4359H51.7733C23.1795 96.4359 0 119.615 0 148.209V158.827V210.6Z" fill="url(#paint3_linear_2052_193)"/>
<path d="M0.000409181 255H170.973C214.831 255 250.386 219.443 250.386 175.586C250.386 156.732 243.814 139.416 232.835 125.798L232.83 125.803C246.883 156.867 210.642 192.609 173.731 192.609H51.7733C23.1795 192.609 0 215.788 0 244.382V255H0.000409181Z" fill="url(#paint4_linear_2052_193)"/>
<path d="M312 145.075V43.8793H355.514C362.261 43.8793 368.429 45.4214 374.018 48.5054C379.705 51.5895 384.234 55.8783 387.608 61.3717C390.981 66.7688 392.667 73.0333 392.667 80.1652C392.667 87.2971 390.981 93.658 387.608 99.2478C384.234 104.741 379.753 109.03 374.163 112.114C368.573 115.198 362.357 116.74 355.514 116.74H336.287V145.075H312ZM336.287 96.3565H352.767C355.659 96.3565 358.261 95.7301 360.574 94.4772C362.887 93.2243 364.766 91.3931 366.212 88.9837C367.658 86.5743 368.38 83.683 368.38 80.3098C368.38 76.9366 367.658 74.0453 366.212 71.6359C364.766 69.2265 362.839 67.3953 360.429 66.1424C358.116 64.7931 355.562 64.1185 352.767 64.1185H336.287V96.3565Z" fill="black"/>
<path d="M389.017 145.075L421.833 55.5891C423.472 51.1558 426.17 47.8308 429.929 45.6141C433.688 43.3011 437.928 42.1446 442.651 42.1446C447.373 42.1446 451.614 43.2529 455.373 45.4696C459.131 47.5899 461.83 50.9149 463.468 55.4446L496.429 145.075H470.263L463.902 125.559H420.966L414.316 145.075H389.017ZM427.182 105.464H457.686L444.819 65.1304C444.627 64.5522 444.337 64.1667 443.952 63.9739C443.663 63.6848 443.277 63.5402 442.795 63.5402C442.314 63.5402 441.88 63.6848 441.494 63.9739C441.205 64.263 441.012 64.6486 440.916 65.1304L427.182 105.464Z" fill="black"/>
<path d="M505.85 145.075V124.836H549.075C551.002 124.836 552.737 124.354 554.279 123.39C555.821 122.426 557.026 121.174 557.893 119.632C558.857 118.09 559.339 116.403 559.339 114.572C559.339 112.644 558.857 110.909 557.893 109.367C557.026 107.825 555.821 106.572 554.279 105.609C552.737 104.645 551.002 104.163 549.075 104.163H533.462C527.583 104.163 522.234 103.007 517.415 100.693C512.596 98.3804 508.741 95.0073 505.85 90.5739C503.055 86.0442 501.657 80.6471 501.657 74.3826C501.657 68.2145 503.006 62.8656 505.705 58.3359C508.404 53.8062 512.066 50.2884 516.692 47.7826C521.318 45.1804 526.426 43.8793 532.016 43.8793H576.687V64.1185H534.763C533.028 64.1185 531.438 64.5522 529.992 65.4196C528.546 66.287 527.438 67.4435 526.667 68.8891C525.896 70.3348 525.51 71.925 525.51 73.6598C525.51 75.3946 525.896 76.9848 526.667 78.4304C527.438 79.7797 528.546 80.8881 529.992 81.7554C531.438 82.6228 533.028 83.0565 534.763 83.0565H551.098C557.556 83.0565 563.146 84.3094 567.868 86.8152C572.687 89.2246 576.397 92.646 579 97.0794C581.698 101.416 583.047 106.524 583.047 112.403C583.047 119.342 581.65 125.27 578.855 130.185C576.156 135.004 572.494 138.714 567.868 141.316C563.242 143.822 558.134 145.075 552.544 145.075H505.85Z" fill="black"/>
<path d="M596.472 145.075V43.8793H639.986C646.732 43.8793 652.9 45.4214 658.49 48.5054C664.176 51.5895 668.706 55.8783 672.079 61.3717C675.452 66.7688 677.139 73.0333 677.139 80.1652C677.139 87.2971 675.452 93.658 672.079 99.2478C668.706 104.741 664.225 109.03 658.635 112.114C653.045 115.198 646.829 116.74 639.986 116.74H620.759V145.075H596.472ZM620.759 96.3565H637.239C640.13 96.3565 642.732 95.7301 645.046 94.4772C647.359 93.2243 649.238 91.3931 650.684 88.9837C652.129 86.5743 652.852 83.683 652.852 80.3098C652.852 76.9366 652.129 74.0453 650.684 71.6359C649.238 69.2265 647.31 67.3953 644.901 66.1424C642.588 64.7931 640.034 64.1185 637.239 64.1185H620.759V96.3565Z" fill="black"/>
<path d="M738.515 146.954C730.419 146.954 723.095 145.605 716.541 142.907C709.987 140.208 704.349 136.449 699.627 131.63C694.904 126.812 691.242 121.222 688.64 114.861C686.134 108.5 684.881 101.657 684.881 94.3326C684.881 87.008 686.134 80.1652 688.64 73.8044C691.242 67.4435 694.856 61.9018 699.482 57.1794C704.205 52.3605 709.843 48.65 716.396 46.0478C723.046 43.3493 730.419 42 738.515 42C746.514 42 753.791 43.3493 760.344 46.0478C766.994 48.65 772.632 52.3605 777.258 57.1794C781.981 61.9018 785.643 67.4917 788.245 73.9489C790.848 80.3098 792.149 87.1044 792.149 94.3326C792.149 101.657 790.848 108.5 788.245 114.861C785.643 121.222 781.981 126.812 777.258 131.63C772.632 136.449 766.994 140.208 760.344 142.907C753.791 145.605 746.514 146.954 738.515 146.954ZM738.515 126.282C742.755 126.282 746.659 125.511 750.225 123.968C753.887 122.33 757.019 120.065 759.621 117.174C762.224 114.283 764.247 110.909 765.693 107.054C767.139 103.103 767.862 98.8623 767.862 94.3326C767.862 89.8029 767.139 85.6105 765.693 81.7554C764.247 77.9004 762.224 74.5272 759.621 71.6359C757.019 68.7446 753.887 66.5279 750.225 64.9859C746.659 63.3475 742.755 62.5283 738.515 62.5283C734.178 62.5283 730.226 63.3475 726.661 64.9859C723.095 66.5279 719.962 68.7446 717.264 71.6359C714.662 74.5272 712.638 77.9486 711.192 81.9C709.843 85.7551 709.168 89.8993 709.168 94.3326C709.168 98.8623 709.843 103.103 711.192 107.054C712.638 110.909 714.662 114.283 717.264 117.174C719.962 120.065 723.095 122.33 726.661 123.968C730.226 125.511 734.178 126.282 738.515 126.282Z" fill="black"/>
<path d="M804.99 145.075V43.8793H851.251C858.094 43.8793 864.31 45.3732 869.9 48.3609C875.586 51.3486 880.068 55.4928 883.344 60.7935C886.718 66.0942 888.404 72.2141 888.404 79.1533C888.404 85.6105 886.862 91.4413 883.778 96.6457C880.694 101.754 876.646 105.898 871.635 109.078L879.73 122.812C880.212 123.487 880.742 124.017 881.32 124.402C881.995 124.788 882.863 124.98 883.923 124.98H892.886V145.075H878.718C874.381 145.075 870.43 144.063 866.864 142.039C863.298 139.919 860.503 137.172 858.479 133.799L847.637 114.572C846.962 114.572 846.239 114.572 845.468 114.572C844.794 114.572 844.071 114.572 843.3 114.572H829.277V145.075H804.99ZM829.277 94.4772H848.504C851.299 94.4772 853.901 93.8989 856.311 92.7424C858.72 91.4895 860.599 89.7547 861.949 87.5381C863.394 85.225 864.117 82.4783 864.117 79.2978C864.117 76.1174 863.394 73.4188 861.949 71.2022C860.503 68.8891 858.576 67.1544 856.166 65.9978C853.853 64.7449 851.299 64.1185 848.504 64.1185H829.277V94.4772Z" fill="black"/>
<path d="M955.857 145.075C949.689 145.075 944.244 143.726 939.522 141.027C934.895 138.232 931.233 134.522 928.535 129.896C925.932 125.27 924.631 120.113 924.631 114.427V64.1185H897.164V43.8793H976.241V64.1185H948.918V116.596C948.918 118.812 949.689 120.74 951.231 122.378C952.773 124.017 954.701 124.836 957.014 124.836H964.965V145.075H955.857Z" fill="black"/>
<path d="M312 212.288V162H332.163C335.868 162 338.958 162.548 341.434 163.645C343.909 164.742 345.769 166.264 347.015 168.212C348.261 170.144 348.884 172.37 348.884 174.891C348.884 176.856 348.491 178.583 347.704 180.072C346.917 181.545 345.835 182.757 344.458 183.706C343.097 184.639 341.54 185.302 339.786 185.695V186.186C341.704 186.268 343.499 186.808 345.171 187.807C346.86 188.805 348.228 190.205 349.278 192.006C350.327 193.79 350.851 195.918 350.851 198.39C350.851 201.058 350.187 203.44 348.86 205.535C347.548 207.614 345.606 209.26 343.032 210.471C340.458 211.682 337.286 212.288 333.516 212.288H312ZM322.647 203.596H331.327C334.294 203.596 336.458 203.031 337.819 201.901C339.179 200.755 339.86 199.233 339.86 197.334C339.86 195.943 339.524 194.715 338.852 193.651C338.18 192.587 337.221 191.752 335.975 191.146C334.745 190.541 333.278 190.238 331.573 190.238H322.647V203.596ZM322.647 183.043H330.54C331.999 183.043 333.294 182.79 334.426 182.282C335.573 181.758 336.475 181.022 337.13 180.072C337.802 179.123 338.139 177.985 338.139 176.659C338.139 174.842 337.491 173.377 336.196 172.264C334.917 171.151 333.098 170.594 330.737 170.594H322.647V183.043Z" fill="black"/>
<path d="M388.885 162H399.532V194.658C399.532 198.325 398.655 201.533 396.901 204.283C395.163 207.033 392.729 209.178 389.598 210.716C386.467 212.239 382.82 213 378.656 213C374.476 213 370.82 212.239 367.689 210.716C364.558 209.178 362.123 207.033 360.386 204.283C358.648 201.533 357.779 198.325 357.779 194.658V162H368.427V193.749C368.427 195.664 368.845 197.367 369.681 198.857C370.533 200.346 371.73 201.517 373.271 202.368C374.812 203.219 376.607 203.645 378.656 203.645C380.721 203.645 382.516 203.219 384.041 202.368C385.582 201.517 386.77 200.346 387.606 198.857C388.459 197.367 388.885 195.664 388.885 193.749V162Z" fill="black"/>
<path d="M426.144 212.288H408.292V162H426.292C431.357 162 435.718 163.007 439.373 165.02C443.029 167.017 445.84 169.89 447.807 173.639C449.791 177.388 450.783 181.873 450.783 187.095C450.783 192.333 449.791 196.835 447.807 200.6C445.84 204.365 443.012 207.254 439.324 209.268C435.652 211.281 431.259 212.288 426.144 212.288ZM418.939 203.178H425.701C428.849 203.178 431.496 202.622 433.644 201.508C435.808 200.379 437.431 198.636 438.513 196.278C439.611 193.905 440.16 190.844 440.16 187.095C440.16 183.379 439.611 180.342 438.513 177.985C437.431 175.628 435.816 173.893 433.668 172.779C431.521 171.666 428.873 171.11 425.726 171.11H418.939V203.178Z" fill="black"/>
<path d="M478.833 162H489.357V197.064C489.357 200.305 488.628 203.121 487.169 205.511C485.726 207.901 483.718 209.742 481.144 211.036C478.571 212.329 475.579 212.975 472.169 212.975C469.137 212.975 466.383 212.443 463.907 211.379C461.448 210.299 459.498 208.662 458.055 206.468C456.612 204.259 455.899 201.484 455.916 198.144H466.514C466.547 199.47 466.817 200.608 467.325 201.558C467.85 202.491 468.563 203.211 469.464 203.718C470.382 204.209 471.464 204.455 472.71 204.455C474.022 204.455 475.128 204.177 476.03 203.62C476.948 203.047 477.645 202.212 478.12 201.116C478.595 200.019 478.833 198.668 478.833 197.064V162Z" fill="black"/>
<path d="M498.16 212.288V162H532.094V170.766H508.808V182.749H530.348V191.515H508.808V203.522H532.192V212.288H498.16Z" fill="black"/>
<path d="M538.641 170.766V162H580V170.766H564.582V212.288H554.058V170.766H538.641Z" fill="black"/>
<defs>
<linearGradient id="paint0_linear_2052_193" x1="-0.00118361" y1="148.209" x2="85.189" y2="72.7612" gradientUnits="userSpaceOnUse">
<stop stop-color="#0017E4"/>
<stop offset="1" stop-color="#3793FF"/>
</linearGradient>
<linearGradient id="paint1_linear_2052_193" x1="53.4473" y1="131.952" x2="22.2354" y2="270.712" gradientUnits="userSpaceOnUse">
<stop stop-color="#20B6FF"/>
<stop offset="1" stop-color="#0B2D92"/>
</linearGradient>
<linearGradient id="paint2_linear_2052_193" x1="143.45" y1="192.609" x2="226.148" y2="100.651" gradientUnits="userSpaceOnUse">
<stop stop-color="#0017E4"/>
<stop offset="1" stop-color="#3793FF"/>
</linearGradient>
<linearGradient id="paint3_linear_2052_193" x1="-0.00343854" y1="210.599" x2="210.362" y2="-9.95743" gradientUnits="userSpaceOnUse">
<stop stop-color="#0017E4"/>
<stop offset="1" stop-color="#3793FF"/>
</linearGradient>
<linearGradient id="paint4_linear_2052_193" x1="-0.00389926" y1="254.999" x2="105.297" y2="50.9306" gradientUnits="userSpaceOnUse">
<stop stop-color="#0017E4"/>
<stop offset="1" stop-color="#3793FF"/>
</linearGradient>
</defs>
</svg>
